<?xml version="1.0" encoding="UTF-8"?>
<svg width="36px" height="36px" viewBox="0 0 36 36" version="1.1" xmlns="http://www.w3.org/2000/svg" xmlns:xlink="http://www.w3.org/1999/xlink">
    <defs>
        <polygon id="path-1" points="36.001 35.94 0 35.94 0 17.97 0 0 36.001 0"></polygon>
    </defs>
    <g id="Page-1" stroke="none" stroke-width="1" fill="none" fill-rule="evenodd">
        <g id="In-Black-0p5in-TM">
            <g id="Group-3">
                <mask id="mask-2" fill="white">
                    <use xlink:href="#path-1"></use>
                </mask>
                <g id="Clip-2"></g>
                <path d="M30.675,30.676 L25.34,30.676 L25.34,22.322 C25.34,20.33 25.302,17.767 22.565,17.767 C19.786,17.767 19.362,19.936 19.362,22.178 L19.362,30.676 L14.029,30.676 L14.029,13.497 L19.147,13.497 L19.147,15.844 L19.221,15.844 C19.933,14.493 21.676,13.069 24.273,13.069 C29.676,13.069 30.675,16.626 30.675,21.253 L30.675,30.676 Z M8.009,11.147 C6.293,11.147 4.911,9.76 4.911,8.051 C4.911,6.344 6.293,4.956 8.009,4.956 C9.717,4.956 11.104,6.344 11.104,8.051 C11.104,9.76 9.717,11.147 8.009,11.147 Z M5.335,30.676 L10.68,30.676 L10.68,13.497 L5.335,13.497 L5.335,30.676 Z M33.334,0 L2.655,0 C1.19,0 0,1.162 0,2.594 L0,33.402 C0,34.836 1.19,36 2.655,36 L33.334,36 C34.802,36 36.001,34.836 36.001,33.402 L36.001,2.594 C36.001,1.162 34.802,0 33.334,0 L33.334,0 Z" id="Fill-1" fill="#FFFFFF" mask="url(#mask-2)"></path>
            </g>
        </g>
    </g>
</svg>
